<?xml version="1.0" encoding="UTF-8"?>
<svg id="Capa_1" xmlns="http://www.w3.org/2000/svg" version="1.1" viewBox="0 0 2757.6 752.4">
  <!-- Generator: Adobe Illustrator 29.0.0, SVG Export Plug-In . SVG Version: 2.1.0 Build 186)  -->
  <defs>
    <style>
      .st0 {
        fill: #e8e8e8;
      }
    </style>
  </defs>
  <g>
    <path class="st0" d="M68.9,606.9V137.8h79.1v399.2h240.2v70H68.9Z"/>
    <path class="st0" d="M862.3,606.9l-121.1-341h86.8l58.1,185.6,28,104.3,27.3-104.3,57.4-185.6h85.4l-121.9,341h-100.1.1Z"/>
    <path class="st0" d="M1094.1,436.8c0-107.1,66.5-177.9,162.5-177.9s159,67.9,159,162.5-1.4,27.3-2.8,34.3h-243.7c4.2,60.9,39.9,93.8,93.8,93.8s86.1-30.8,98.7-59.5l48.3,50.4c-25.9,39.2-72.1,73.5-147.8,73.5s-168.1-70.7-168.1-177.2h0ZM1169.8,405.3h175.1c-5.6-53.9-36.4-83.3-88.2-83.3s-80.5,28-86.8,83.3h0Z"/>
    <path class="st0" d="M1453.4,530.6l46.2-49c18.9,34.3,60.9,69.3,121.9,69.3s55.3-11.9,55.3-36.4-25.9-33.6-63.7-42.7l-45.5-11.2c-53.9-12.6-103.6-36.4-103.6-98.7s51.1-102.2,129.6-102.2,124,35,145,73.5l-46.2,49c-23.8-37.8-60.2-60.2-104.3-60.2s-50.4,12.6-50.4,35.7,18.2,33.6,64.4,45.5l41.3,10.5c76.3,19.6,104.3,50.4,104.3,99.4s-56.7,100.8-128.9,100.8-139.4-29.4-165.3-83.3h-.1Z"/>
    <path class="st0" d="M1824.5,513.8v-187h-53.2v-60.9h53.2v-41.3l78.4-49.7v91h104.3v60.9h-104.3v168.1c0,37.1,17.5,46.2,40.6,46.2s46.2-21.7,56-41.3l24.5,70c-14.7,21.7-48.3,44.8-98,44.8s-101.5-40.6-101.5-100.8Z"/>
    <path class="st0" d="M2050,533.4c0-48.3,33.6-77.7,88.9-99.4l114.1-48.3c-2.8-34.3-18.2-57.4-65.1-57.4s-81.2,26.6-100.8,62.3l-46.9-56c26.6-36.4,79.8-75.6,155.5-75.6s132.4,48.3,132.4,132.4v128.2c0,15.4,5.6,20.3,18.2,20.3h21.7v67.2h-48.3c-36.4,0-65.1-16.8-65.1-65.8v-25.2c-10.5,44.8-43.4,98-114.8,98s-89.6-31.5-89.6-80.5l-.2-.2ZM2167.7,553c51.8,0,86.8-30.8,86.8-77v-36.4l-87.5,39.2c-29.4,13.3-41.3,25.2-41.3,42.7s13.3,31.5,42,31.5Z"/>
    <path class="st0" d="M2428.2,606.9v-341h78.4v96.6c12.6-54.6,46.9-103.6,107.8-103.6s74.2,28,74.2,78.4-9.1,57.4-15.4,67.9h-80.5c11.2-11.2,21.7-33.6,21.7-53.2s-9.1-34.3-32.2-34.3c-39.2,0-75.6,44.8-75.6,101.5v187.7h-78.4Z"/>
  </g>
  <g>
    <g>
      <path class="st0" d="M538,294c-98.6-101.4-246.5,50.7-147.9,152.1l119.1-12.2c9.1-.9,16.2-8.2,17.1-17.3l11.7-122.6Z"/>
      <path class="st0" d="M390.1,446.1l147.9,152.1-11.7-124.6c-.9-9.3-8.2-16.6-17.4-17.4l-118.8-10.2h0Z"/>
      <path class="st0" d="M538,294l10.1,122.4c.8,9.2,8,16.6,17.1,17.5l120.6,12.2c98.6-101.4-49.3-253.5-147.9-152.1"/>
      <path class="st0" d="M538,598.3l147.9-152.1-120.3,10.2c-9.3.8-16.7,8.2-17.5,17.6l-10.1,124.4h0Z"/>
    </g>
    <path class="st0" d="M538,606.9c-2.3,0-4.6-1-6.2-2.6l-147.9-152.1c-34.9-35.9-44.3-81.6-25.8-125.4,18.6-44.1,62.6-74.9,106.9-74.9s51.4,10.4,73,30.1c21.6-19.7,46.8-30.1,73-30.1,44.3,0,88.3,30.8,106.9,74.9,18.5,43.8,9.1,89.5-25.8,125.4l-147.9,152.1c-1.6,1.7-3.9,2.6-6.2,2.6h0ZM464.9,254.5c-43.3,0-86.3,30.1-104.5,73.3-18.1,42.8-8.9,87.5,25.3,122.6l147.9,152.1c2.3,2.3,6.4,2.3,8.7,0l147.9-152.1c34.2-35.1,43.4-79.8,25.3-122.6-18.2-43.1-61.2-73.3-104.5-73.3s-50.9,10.4-72.1,30.2l-.9.8-.9-.8c-21.3-19.7-46.2-30.2-72.1-30.2h0Z"/>
  </g>
</svg>