<?xml version="1.0" encoding="UTF-8"?>
<svg id="Capa_1" xmlns="http://www.w3.org/2000/svg" version="1.1" viewBox="0 0 26.3 26.3">
  <!-- Generator: Adobe Illustrator 29.0.0, SVG Export Plug-In . SVG Version: 2.1.0 Build 186)  -->
  <defs>
    <style>
      .st0 {
        fill: #171717;
      }
    </style>
  </defs>
  <path class="st0" d="M13.2,19.6l-1-10.5c0-.8-.7-1.4-1.5-1.5L.7,6.7h0l12.5,12.9Z"/>
  <path class="st0" d="M15.5,7.6c-.8,0-1.4.7-1.5,1.5l-.9,10.5,12.5-12.9h0l-10.2.9Z"/>
  <polygon class="st0" points=".7 6.7 .7 6.7 .7 6.7 .7 6.7"/>
  <polygon class="st0" points="25.7 6.7 25.7 6.7 25.7 6.7 25.7 6.7"/>
  <rect class="st0" x=".7" y="6.7" width="0" height="0" transform="translate(-2.9 1) rotate(-26.6)"/>
  <polygon class="st0" points=".7 6.7 .7 6.7 .7 6.7 .7 6.7"/>
  <rect class="st0" x="25.7" y="6.7" width="0" height="0" transform="translate(-.5 2.2) rotate(-4.8)"/>
  <polygon class="st0" points="25.7 6.7 25.7 6.7 25.7 6.7 25.7 6.7"/>
</svg>