<?xml version="1.0" encoding="UTF-8"?>
<svg id="Capa_1" data-name="Capa 1" xmlns="http://www.w3.org/2000/svg" viewBox="0 0 1510.73 1417.32">
  <defs>
    <style>
      .cls-1 {
        fill: #e62b3f;
      }
    </style>
  </defs>
  <g>
    <path class="cls-1" d="M755.37,168.12C361.78-236.74-228.61,370.55,164.98,775.42l475.4-48.81c36.23-3.72,64.8-32.62,68.28-69.06l46.71-489.43Z"/>
    <path class="cls-1" d="M164.98,775.42l590.39,607.3-46.69-497.43c-3.47-36.97-32.76-66.15-69.57-69.3l-474.13-40.58Z"/>
    <path class="cls-1" d="M755.37,168.12l40.44,488.46c3.05,36.88,31.84,66.33,68.46,70.04l481.48,48.8c393.59-404.87-196.8-1012.16-590.39-607.3"/>
    <path class="cls-1" d="M755.37,1382.71l590.39-607.3-480.22,40.57c-37.2,3.14-66.69,32.85-69.74,70.26l-40.43,496.47Z"/>
  </g>
  <path class="cls-1" d="M755.37,1417.32c-9.28,0-18.33-3.82-24.82-10.49L140.16,799.54C.78,656.17-36.79,473.66,37.09,298.82,111.42,122.88,286.92,0,463.88,0c104.65,0,205.34,41.45,291.49,119.96C841.51,41.45,942.2,0,1046.86,0c176.94,0,352.44,122.88,426.78,298.83,73.88,174.85,36.31,357.36-103.06,500.72l-590.39,607.29c-6.47,6.67-15.51,10.49-24.81,10.49ZM463.88,10.38c-172.91,0-344.47,120.27-417.24,292.47-72.17,170.82-35.38,349.23,100.96,489.46l590.39,607.29c9.11,9.35,25.71,9.32,34.74.01l590.4-607.3c136.33-140.22,173.12-318.62,100.94-489.45C1391.31,130.65,1219.75,10.38,1046.86,10.38c-103.43,0-203,41.65-287.96,120.43l-3.53,3.27-3.53-3.27C666.87,52.02,567.3,10.38,463.88,10.38Z"/>
</svg>