<?xml version="1.0" encoding="UTF-8"?>
<svg id="Capa_1" xmlns="http://www.w3.org/2000/svg" version="1.1" viewBox="0 0 1559.1 1559.1">
  <!-- Generator: Adobe Illustrator 29.1.0, SVG Export Plug-In . SVG Version: 2.1.0 Build 142)  -->
  <defs>
    <style>
      .st0 {
        fill: #171717;
      }
    </style>
  </defs>
  <g>
    <path class="st0" d="M779.5,239C385.9-165.9-204.5,441.4,189.1,846.3l475.4-48.8c36.2-3.7,64.8-32.6,68.3-69.1l46.7-489.4Z"/>
    <path class="st0" d="M189.1,846.3l590.4,607.3-46.7-497.4c-3.5-37-32.8-66.1-69.6-69.3l-474.1-40.6Z"/>
    <path class="st0" d="M779.5,239l40.4,488.5c3.1,36.9,31.8,66.3,68.5,70l481.5,48.8c393.6-404.9-196.8-1012.2-590.4-607.3"/>
    <path class="st0" d="M779.5,1453.6l590.4-607.3-480.2,40.6c-37.2,3.1-66.7,32.9-69.7,70.3l-40.4,496.5Z"/>
  </g>
  <path class="st0" d="M779.5,1488.2c-9.3,0-18.3-3.8-24.8-10.5L164.3,870.4C24.9,727-12.6,544.5,61.3,369.7,135.6,193.7,311.1,70.9,488,70.9s205.3,41.5,291.5,120c86.1-78.5,186.8-120,291.5-120,176.9,0,352.4,122.9,426.8,298.8,73.9,174.9,36.3,357.4-103.1,500.7l-590.4,607.3c-6.5,6.7-15.5,10.5-24.8,10.5ZM488,81.2c-172.9,0-344.5,120.3-417.2,292.5C-1.4,544.5,35.4,722.9,171.8,863.2l590.4,607.3c9.1,9.4,25.7,9.3,34.7,0l590.4-607.3c136.3-140.2,173.1-318.6,100.9-489.4-72.8-172.2-244.3-292.5-417.2-292.5s-203,41.6-288,120.4l-3.5,3.3-3.5-3.3c-85-78.8-184.5-120.4-288-120.4Z"/>
</svg>